<?xml version="1.0" standalone="no"?>
<!DOCTYPE svg PUBLIC "-//W3C//DTD SVG 20010904//EN"
 "http://www.w3.org/TR/2001/REC-SVG-20010904/DTD/svg10.dtd">
<svg version="1.0" xmlns="http://www.w3.org/2000/svg"
 width="18.000000pt" height="18.000000pt" viewBox="0 0 2048.000000 2048.000000"
 preserveAspectRatio="xMidYMid meet">
<metadata>
Created by potrace 1.16, written by Peter Selinger 2001-2019
</metadata>
<g transform="translate(0.000000,2048.000000) scale(0.100000,-0.100000)"
fill="rgb(243 244 246)" stroke="none">
<path d="M1710 20464 c-613 -89 -1135 -447 -1456 -999 -115 -198 -205 -464
-239 -706 -14 -103 -15 -938 -13 -8564 3 -8187 4 -8453 22 -8545 83 -426 262
-766 561 -1065 298 -298 640 -478 1065 -561 92 -18 358 -19 8545 -22 9326 -3
8535 -8 8794 59 344 89 644 262 906 524 262 262 435 562 524 906 66 258 61
-527 61 8749 0 9276 5 8491 -61 8749 -89 344 -262 644 -524 906 -292 292 -596
457 -1025 554 l-115 26 -8475 1 c-7169 2 -8490 0 -8570 -12z m15030 -9495
c579 -33 1157 -144 1581 -302 l64 -24 3 -942 c1 -517 0 -941 -2 -941 -2 0 -48
29 -101 64 -321 213 -828 401 -1325 490 -218 39 -383 56 -605 63 -862 25
-1466 -251 -1591 -727 -22 -86 -22 -253 0 -340 48 -188 166 -347 392 -526 249
-198 528 -343 1257 -653 435 -185 887 -419 1176 -609 316 -208 667 -545 829
-797 362 -562 451 -1418 227 -2177 -45 -150 -130 -369 -196 -501 -89 -179
-202 -330 -360 -482 -194 -186 -360 -301 -634 -437 -436 -217 -892 -334 -1575
-404 -212 -21 -839 -30 -1096 -15 -810 48 -1484 196 -2013 442 l-91 42 0 962
0 962 -42 33 c-42 34 -42 34 -18 41 53 15 60 11 60 -29 0 -37 4 -41 88 -103
538 -400 1179 -662 1836 -750 198 -26 570 -36 771 -20 831 67 1291 433 1234
983 -33 330 -248 594 -719 883 -173 106 -605 309 -1095 516 -82 35 -244 111
-360 169 -621 315 -980 577 -1278 935 -335 401 -495 819 -527 1379 -29 508 67
983 272 1351 251 451 547 742 1023 1007 405 226 940 374 1605 443 322 34 774
39 1210 14z m-4860 -1029 l0 -820 -1280 0 -1280 0 0 -3660 0 -3660 -1020 0
-1020 0 0 3660 0 3660 -1280 0 -1280 0 0 820 0 820 3580 0 3580 0 0 -820z"/>
</g>
</svg>
